<svg xmlns="http://www.w3.org/2000/svg" style="display:none">
<symbol id="logo-icon" viewBox="0 0 31 36" fill="none">
  <path d="M0 9.9855V25.5071C0 26.2288 0.388793 26.8945 1.01736 27.249L7.82203 31.0876V27.8785H10.8305V23.6667H15.0424V17.6497H9.02542V11.4322H15.0424V7.01977H19.8559V4.0113H22.4633L16.9319 0.850524C16.0096 0.323496 14.8774 0.323498 13.9551 0.850526L1.00772 8.24902C0.384572 8.6051 0 9.26779 0 9.9855Z" fill="#5051F9"/>
  <path d="M29.7221 8.44176L23.0651 4.41248V7.42095H19.856V11.8334H15.4436V17.6498H21.4606V23.6667H15.4436V28.2797H11.0312V31.4887H8.42383L13.9284 34.6342C14.865 35.1694 16.017 35.1605 16.9453 34.6109L29.7055 27.0555C30.3136 26.6954 30.6865 26.0412 30.6865 25.3345V10.1528C30.6865 9.45298 30.3208 8.8041 29.7221 8.44176Z" fill="#1DA7FF"/>
</symbol>
<symbol id="logo-text" viewBox="0 0 63 12" fill="none">
  <path d="M5.61579 11.584C4.49579 11.584 3.51445 11.3386 2.67179 10.848C1.83979 10.3573 1.18379 9.67997 0.703785 8.81597C0.234452 7.9413 -0.000214815 6.9333 -0.000214815 5.79197C-0.000214815 4.65063 0.234452 3.64797 0.703785 2.78397C1.18379 1.9093 1.83979 1.22663 2.67179 0.735968C3.51445 0.245301 4.49579 -3.24249e-05 5.61579 -3.24249e-05C6.72512 -3.24249e-05 7.70112 0.245301 8.54379 0.735968C9.38645 1.22663 10.0425 1.9093 10.5118 2.78397C10.9811 3.64797 11.2158 4.65063 11.2158 5.79197C11.2158 6.9333 10.9811 7.9413 10.5118 8.81597C10.0425 9.67997 9.38645 10.3573 8.54379 10.848C7.70112 11.3386 6.72512 11.584 5.61579 11.584ZM5.61579 9.74397C6.68245 9.74397 7.53045 9.39197 8.15979 8.68797C8.79979 7.98397 9.11979 7.01863 9.11979 5.79197C9.11979 4.5653 8.79979 3.59997 8.15979 2.89597C7.53045 2.19197 6.68245 1.83997 5.61579 1.83997C4.54912 1.83997 3.69579 2.19197 3.05579 2.89597C2.41579 3.59997 2.09579 4.5653 2.09579 5.79197C2.09579 7.01863 2.41579 7.98397 3.05579 8.68797C3.69579 9.39197 4.54912 9.74397 5.61579 9.74397ZM18.096 11.584C16.9654 11.584 15.9947 11.344 15.184 10.864C14.3734 10.3733 13.7494 9.69597 13.312 8.83197C12.8747 7.9573 12.656 6.9493 12.656 5.80797C12.656 4.66663 12.8747 3.65863 13.312 2.78397C13.7494 1.9093 14.3734 1.22663 15.184 0.735968C15.9947 0.245301 16.9654 -3.24249e-05 18.096 -3.24249e-05C19.44 -3.24249e-05 20.5387 0.335967 21.392 1.00797C22.256 1.6693 22.7947 2.60263 23.008 3.80797H20.752C20.6134 3.19997 20.3147 2.7253 19.856 2.38397C19.408 2.03197 18.8107 1.85597 18.064 1.85597C17.0294 1.85597 16.2187 2.20797 15.632 2.91197C15.0454 3.61597 14.752 4.5813 14.752 5.80797C14.752 7.03463 15.0454 7.99997 15.632 8.70397C16.2187 9.3973 17.0294 9.74397 18.064 9.74397C18.8107 9.74397 19.408 9.58397 19.856 9.26397C20.3147 8.9333 20.6134 8.47997 20.752 7.90397H23.008C22.7947 9.05597 22.256 9.9573 21.392 10.608C20.5387 11.2586 19.44 11.584 18.096 11.584ZM27.2883 11.392V1.83997H24.0243V0.191967H32.6163V1.83997H29.3363V11.392H27.2883ZM38.9752 11.584C37.8552 11.584 36.8738 11.3386 36.0312 10.848C35.1992 10.3573 34.5432 9.67997 34.0632 8.81597C33.5938 7.9413 33.3592 6.9333 33.3592 5.79197C33.3592 4.65063 33.5938 3.64797 34.0632 2.78397C34.5432 1.9093 35.1992 1.22663 36.0312 0.735968C36.8738 0.245301 37.8552 -3.24249e-05 38.9752 -3.24249e-05C40.0845 -3.24249e-05 41.0605 0.245301 41.9032 0.735968C42.7458 1.22663 43.4018 1.9093 43.8712 2.78397C44.3405 3.64797 44.5752 4.65063 44.5752 5.79197C44.5752 6.9333 44.3405 7.9413 43.8712 8.81597C43.4018 9.67997 42.7458 10.3573 41.9032 10.848C41.0605 11.3386 40.0845 11.584 38.9752 11.584ZM38.9752 9.74397C40.0418 9.74397 40.8898 9.39197 41.5192 8.68797C42.1592 7.98397 42.4792 7.01863 42.4792 5.79197C42.4792 4.5653 42.1592 3.59997 41.5192 2.89597C40.8898 2.19197 40.0418 1.83997 38.9752 1.83997C37.9085 1.83997 37.0552 2.19197 36.4152 2.89597C35.7752 3.59997 35.4552 4.5653 35.4552 5.79197C35.4552 7.01863 35.7752 7.98397 36.4152 8.68797C37.0552 9.39197 37.9085 9.74397 38.9752 9.74397ZM46.3834 11.392V0.191967H48.8154L52.3834 7.29597L55.9034 0.191967H58.3354V11.392H56.2874V3.66397L53.1674 9.79197H51.5514L48.4314 3.66397V11.392H46.3834ZM61.3404 11.504C60.9671 11.504 60.6577 11.3866 60.4124 11.152C60.1777 10.9173 60.0604 10.6346 60.0604 10.304C60.0604 9.96263 60.1777 9.67463 60.4124 9.43997C60.6577 9.2053 60.9671 9.08797 61.3404 9.08797C61.7137 9.08797 62.0177 9.2053 62.2524 9.43997C62.4977 9.67463 62.6204 9.96263 62.6204 10.304C62.6204 10.6346 62.4977 10.9173 62.2524 11.152C62.0177 11.3866 61.7137 11.504 61.3404 11.504Z" fill="currentColor"/>
</symbol>
<symbol id="search-icon" viewBox="0 0 24 24">
  <path
    d="M20.71,19.29l-3.4-3.39A7.92,7.92,0,0,0,19,11a8,8,0,1,0-8,8,7.92,7.92,0,0,0,4.9-1.69l3.39,3.4a1,1,0,0,0,1.42,0A1,1,0,0,0,20.71,19.29ZM5,11a6,6,0,1,1,6,6A6,6,0,0,1,5,11Z"
    fill="currentColor"
  />
</symbol>
<symbol id="delete-icon" viewBox="0 0 14 14" fill="none">
  <path d="M0 0 L14 14" stroke="currentColor" stroke-width="2" stroke-linecap="round"/>
  <path d="M14 0 L0 14" stroke="currentColor" stroke-width="2" stroke-linecap="round"/>
</symbol>
<symbol id="loading-icon" viewBox="0 0 14 14" fill="none">
  <g fill-rule="evenodd">
    <path d="M0 7a7 7 0 1 1 14 0A7 7 0 0 1 0 7z" fill="currentColor"/>
    <path d="M13 7A6 6 0 1 0 1 7a6 6 0 0 0 12 0z" style="fill: var(--svg-status-bg, #fff);"/>
    <path d="M7 3c2.2 0 4 1.8 4 4s-1.8 4-4 4c-1.3 0-2.5-.7-3.3-1.7L7 7V3" fill="currentColor"/>
  </g>
</symbol>
  <symbol id="chevron-icon" viewBox="0 0 7 4">
  <path d="M3.5 3.5L0.5 0.5" stroke="currentColor" stroke-linecap="round" stroke-linejoin="round"/>
  <path d="M6.5 0.5L3.5 3.5" stroke="currentColor" stroke-linecap="round" stroke-linejoin="round"/>
  </symbol>
</svg>